<?xml version="1.0" encoding="UTF-8" standalone="no"?>
<!-- Created with Inkscape (http://www.inkscape.org/) -->

<svg
   xmlns:svg="http://www.w3.org/2000/svg"
   xmlns="http://www.w3.org/2000/svg"
   version="1.1"
   width="270"
   height="162"
   viewBox="0 0 270 162"
   id="Layer_1"
   xml:space="preserve"><defs
   id="defs11" />
<g
   id="g3">
	<path
   d="m 116.413,97.052 c 0.736,-1.093 0.501,-1.762 -0.506,-1.777 -0.952,-0.013 -1.907,0.253 -2.862,0.386 -0.739,0.103 -1.48,0.19 -2.572,0.331 0.624,-0.833 0.975,-1.302 1.325,-1.77 -0.069,-0.097 -0.14,-0.192 -0.209,-0.288 -0.451,0.255 -0.879,0.569 -1.359,0.745 -0.414,0.152 -0.886,0.146 -1.411,0.219 0.307,-2.006 -0.068,-2.477 -1.819,-2.366 -1.667,0.105 -3.345,0.557 -4.985,0.429 -1.032,-0.081 -2.055,-0.872 -2.967,-1.509 -0.238,-0.166 -0.23,-1.053 -0.017,-1.425 0.519,-0.902 0.153,-1.46 -0.411,-2.123 -1.771,-2.08 -3.528,-4.175 -5.198,-6.335 -0.244,-0.314 -0.202,-1.245 0.071,-1.497 1.117,-1.032 2.276,-2.101 3.605,-2.801 1.741,-0.916 3.651,-1.511 5.499,-2.217 2.469,-0.942 4.987,-1.769 7.415,-2.806 3.545,-1.515 7.039,-3.153 10.534,-4.782 1.452,-0.677 2.095,-1.807 1.772,-3.474 -0.084,-0.438 0.105,-1.099 0.416,-1.417 2.383,-2.442 2.458,-5.427 -0.017,-8.015 -1.546,-1.616 -2.34,-3.58 -3.143,-5.589 -0.793,-1.983 -1.138,-2.268 -3.045,-2.373 -0.648,-0.036 -1.403,-0.321 -1.888,-0.744 -1.907,-1.668 -2.99,-3.727 -2.947,-6.371 0.015,-0.955 -0.325,-2.003 -0.78,-2.861 -1.136,-2.138 -2.154,-4.351 -4.066,-6.007 -1.781,-1.543 -3.245,-3.498 -5.161,-4.819 -0.889,-0.613 -2.644,-0.521 -3.791,-0.126 -14.889,5.127 -29.718,10.426 -44.611,15.542 -4.928,1.692 -9.977,3.047 -15.005,4.427 -1.835,0.504 -3.772,0.634 -5.979,0.985 1.985,-0.739 3.729,-1.285 5.386,-2.028 2.726,-1.223 5.449,-2.472 8.073,-3.895 3.718,-2.017 7.06,-4.703 11.224,-5.931 1.208,-0.357 2.172,-1.472 3.328,-2.091 1.895,-1.014 3.804,-2.035 5.8,-2.815 2.318,-0.905 4.998,-1.131 7.052,-2.407 3.77,-2.34 8.259,-2.828 11.982,-5.162 0.53,-0.332 1.289,-0.273 1.907,-0.494 1.811,-0.646 3.577,-1.425 5.407,-2.001 3.876,-1.22 7.766,-2.401 11.678,-3.496 6.804,-1.903 13.608,-3.814 20.457,-5.543 2.779,-0.701 5.667,-1 8.521,-1.356 2.103,-0.262 4.229,-0.321 6.346,-0.466 2.317,-0.159 4.457,0.495 6.483,1.524 0.791,0.402 1.366,0.926 1.029,2.106 -0.693,2.429 -1.069,4.979 -0.097,7.389 0.545,1.351 1.556,2.542 2.482,3.705 2.061,2.587 4.966,4.092 7.739,5.721 2.568,1.508 5.235,2.856 7.902,4.188 0.582,0.291 1.354,0.306 2.032,0.278 1.048,-0.043 2.095,-0.204 3.134,-0.368 3.913,-0.616 7.822,-1.251 11.731,-1.883 1.647,-0.267 3.285,-0.62 4.941,-0.796 2.272,-0.242 4.579,-0.628 6.833,-0.457 3.024,0.229 5.573,1.63 7.439,4.191 1.243,1.705 2.639,3.314 4.108,4.828 0.502,0.518 1.444,0.599 2.173,0.91 0.769,0.329 1.605,0.581 2.267,1.065 1.411,1.035 1.838,3.19 0.984,4.693 -0.14,0.249 -0.695,0.505 -0.932,0.417 -1.431,-0.532 -2.952,-0.463 -4.431,-1.12 -2.371,-1.053 -4.857,-0.246 -6.751,1.502 -1.172,1.081 -2.076,2.495 -2.924,3.869 -0.659,1.071 -0.187,2.118 0.837,2.854 3.019,2.172 6.595,2.895 10.051,3.915 2.961,0.874 5.948,1.663 8.935,2.451 2.257,0.595 4.529,1.132 6.797,1.688 2.392,0.585 4.802,1.101 7.173,1.76 1.861,0.517 3.438,1.68 4.31,3.341 1.658,3.157 2.942,6.52 2.63,10.175 -0.175,2.049 -0.77,4.062 -1.183,6.089 -0.477,2.33 -1.063,4.643 -1.42,6.991 -0.916,6.04 -2.727,11.661 -6.179,16.836 -3.714,5.567 -7.682,10.978 -10.855,16.911 -1.365,2.553 -3.298,4.812 -5.051,7.145 -3.836,5.104 -8.244,9.685 -12.881,14.062 -0.614,0.579 -0.956,1.46 -1.381,2.225 -0.876,1.573 -2.18,2.455 -3.944,2.88 -0.94,0.228 -1.752,0.948 -2.653,1.38 -0.719,0.343 -1.76,1.026 -2.167,0.772 -0.678,-0.422 -1.305,-1.464 -1.327,-2.265 -0.033,-1.142 -0.374,-1.941 -1.185,-2.624 -0.998,-0.842 -1.035,-1.848 -0.352,-2.833 0.665,-0.961 0.756,-1.818 0.13,-2.83 -0.197,-0.318 -0.251,-0.983 -0.051,-1.248 1.767,-2.333 1.643,-5.256 2.495,-7.867 1.251,-3.837 2.191,-7.777 3.252,-11.676 0.717,-2.633 1.464,-5.261 2.096,-7.914 0.326,-1.364 0.424,-2.783 0.642,-4.174 0.713,-4.535 2.298,-8.775 4.315,-12.878 0.442,-0.899 0.613,-1.928 0.979,-2.87 0.315,-0.814 0.653,-1.641 1.119,-2.373 0.885,-1.391 0.9,-2.95 -0.222,-4.154 -1.283,-1.376 -2.652,-2.675 -4.002,-3.989 -0.213,-0.208 -0.501,-0.379 -0.786,-0.468 -1.413,-0.442 -2.838,-0.85 -4.256,-1.274 -0.127,-0.037 -0.252,-0.09 -0.363,-0.159 -1.621,-1.009 -3.238,-2.021 -4.856,-3.032 -0.037,-0.023 -0.064,-0.066 -0.104,-0.082 -2.099,-0.837 -4.198,-1.674 -6.299,-2.506 -0.081,-0.032 -0.188,-0.005 -0.261,-0.046 -2.352,-1.356 -4.297,-0.025 -6.427,0.786 -3.041,1.159 -6.189,2.053 -9.33,2.924 -3.31,0.918 -6.66,1.684 -9.998,2.5 -1.793,0.438 -3.574,0.998 -5.396,1.231 -2.754,0.35 -5.547,0.393 -8.306,0.708 -1.229,0.14 -2.395,0.317 -3.614,-0.077 -0.404,-0.131 -1.081,-0.025 -1.389,0.248 -1.867,1.659 -3.646,3.418 -5.496,5.1 -0.49,0.446 -1.079,0.862 -1.697,1.073 -1.765,0.602 -3.135,1.665 -4.393,3.026 -1.757,1.905 -3.704,3.623 -6.203,4.544 -0.204,0.076 -0.455,0.041 -0.925,0.075 z"
   id="path7"
   style="fill-rule:evenodd" />
</g>
</svg>